HIERARCHY
ROOT Hips
{
	OFFSET -0.001795 -0.223333 0.028219
	CHANNELS 6 Xposition Yposition Zposition Zrotation Yrotation Xrotation 
	JOINT LeftUpLeg
	{
		OFFSET 0.069520 -0.091406 -0.006815
		CHANNELS 3 Zrotation Yrotation Xrotation
		JOINT LeftLeg
		{
			OFFSET 0.034277 -0.375199 -0.004496
			CHANNELS 3 Zrotation Yrotation Xrotation
			JOINT LeftFoot
			{
				OFFSET -0.013596 -0.397961 -0.043693
				CHANNELS 3 Zrotation Yrotation Xrotation
				JOINT LeftToe
				{
					OFFSET 0.026358 -0.055791 0.119288
					CHANNELS 3 Zrotation Yrotation Xrotation
					End Site
					{
						OFFSET 0.000000 0.000000 0.000000
					}
				}
			}
		}
	}
	JOINT RightUpLeg
	{
		OFFSET -0.067670 -0.090522 -0.004320
		CHANNELS 3 Zrotation Yrotation Xrotation
		JOINT RightLeg
		{
			OFFSET -0.038290 -0.382569 -0.008850
			CHANNELS 3 Zrotation Yrotation Xrotation
			JOINT RightFoot
			{
				OFFSET 0.015774 -0.398415 -0.042312
				CHANNELS 3 Zrotation Yrotation Xrotation
				JOINT RightToe
				{
					OFFSET -0.025372 -0.048144 0.123348
					CHANNELS 3 Zrotation Yrotation Xrotation
					End Site
					{
						OFFSET 0.000000 0.000000 0.000000
					}
				}
			}
		}
	}
	JOINT Spine
	{
		OFFSET -0.002533 0.108963 -0.026696
		CHANNELS 3 Zrotation Yrotation Xrotation
		JOINT Spine1
		{
			OFFSET 0.005487 0.135180 0.001092
			CHANNELS 3 Zrotation Yrotation Xrotation
			JOINT Spine2
			{
				OFFSET 0.001457 0.052922 0.025425
				CHANNELS 3 Zrotation Yrotation Xrotation
				JOINT Neck
				{
					OFFSET -0.002778 0.213870 -0.042857
					CHANNELS 3 Zrotation Yrotation Xrotation
					JOINT Head
					{
						OFFSET 0.005152 0.064970 0.051349
						CHANNELS 3 Zrotation Yrotation Xrotation
						End Site
						{
							OFFSET 0.000000 0.000000 0.000000
						}
					}
				}
				JOINT LeftShoulder
				{
					OFFSET 0.078845 0.121749 -0.034090
					CHANNELS 3 Zrotation Yrotation Xrotation
					JOINT LeftArm
					{
						OFFSET 0.090977 0.030469 -0.008868
						CHANNELS 3 Zrotation Yrotation Xrotation
						JOINT LeftForeArm
						{
							OFFSET 0.259612 -0.012772 -0.027456
							CHANNELS 3 Zrotation Yrotation Xrotation
							JOINT LeftHand
							{
								OFFSET 0.249234 0.008986 -0.001171
								CHANNELS 3 Zrotation Yrotation Xrotation
								End Site
								{
									OFFSET 0.000000 0.000000 0.000000
								}
							}
						}
					}
				}
				JOINT RightShoulder
				{
					OFFSET -0.081759 0.118833 -0.038615
					CHANNELS 3 Zrotation Yrotation Xrotation
					JOINT RightArm
					{
						OFFSET -0.096012 0.032551 -0.009143
						CHANNELS 3 Zrotation Yrotation Xrotation
						JOINT RightForeArm
						{
							OFFSET -0.253742 -0.013329 -0.021401
							CHANNELS 3 Zrotation Yrotation Xrotation
							JOINT RightHand
							{
								OFFSET -0.255298 0.007772 -0.005559
								CHANNELS 3 Zrotation Yrotation Xrotation
								End Site
								{
									OFFSET 0.000000 0.000000 0.000000
								}
							}
						}
					}
				}
			}
		}
	}
}
MOTION
Frames: 13
Frame Time: 0.050000
-0.676086 0.858534 -0.225612 9.888040 63.926610 26.191024 32.731034 -13.464837 -66.205849 -50.686616 23.404291 77.338558 14.592367 27.143232 14.584790 0.000000 0.000000 0.000000 16.756018 -4.644838 -52.919132 -21.207754 1.724074 49.263511 3.547100 10.763498 -12.135192 0.000000 0.000000 0.000000 -16.367687 -16.143686 65.607229 -5.374153 1.616821 -35.242901 9.187690 32.527808 39.679548 8.231038 5.978670 -46.848838 0.000000 0.000000 0.000000 -19.437675 -11.897345 -13.636845 -54.261035 -3.608236 -3.422564 108.789174 -64.973362 -97.717010 0.000000 0.000000 0.000000 18.584508 -7.353264 6.853471 50.770501 26.797412 4.041188 -96.075815 34.935338 -7.770269 0.000000 0.000000 0.000000 
-0.687150 0.853880 -0.224076 8.828120 64.889622 25.234816 33.625338 -13.394386 -66.073313 -55.137723 25.328628 73.747207 16.985481 29.801793 17.219550 0.000000 0.000000 0.000000 18.044837 -4.626327 -53.899476 -22.496591 2.224837 50.668848 3.920401 11.721197 -11.396514 0.000000 0.000000 0.000000 -17.495072 -15.908970 66.027457 -4.357344 1.518109 -35.701115 10.764183 34.140716 40.640619 8.347275 6.177170 -47.209516 0.000000 0.000000 0.000000 -19.997264 -12.928703 -14.342353 -54.440829 -3.041032 -3.309042 106.277121 -66.291613 -96.651618 0.000000 0.000000 0.000000 20.855647 -8.707610 7.545879 49.880268 29.817164 4.482833 -97.278948 35.766784 -8.421594 0.000000 0.000000 0.000000 
-0.698114 0.849632 -0.222437 7.529317 66.016468 23.928275 34.678113 -13.258302 -65.484885 -57.360860 24.515044 70.149308 18.192144 31.834041 17.324612 0.000000 0.000000 0.000000 18.665870 -4.688317 -53.899588 -23.239489 2.249890 51.084581 4.048001 12.420098 -12.541236 0.000000 0.000000 0.000000 -18.573625 -15.520464 65.746605 -3.274916 1.414557 -35.544470 11.481712 35.233370 40.848140 8.299906 6.419970 -46.983991 0.000000 0.000000 0.000000 -18.800201 -13.065837 -13.995940 -54.662622 -3.660032 -3.398649 100.223450 -67.194381 -91.862315 0.000000 0.000000 0.000000 22.131809 -8.494039 8.887145 50.381308 31.508196 4.970485 -98.112897 36.168289 -8.806360 0.000000 0.000000 0.000000 
-0.708117 0.845967 -0.221218 6.911731 66.931779 23.481874 36.752172 -12.724759 -64.520304 -60.342556 24.335018 66.190653 19.734699 33.830117 18.526262 0.000000 0.000000 0.000000 19.209763 -4.905381 -54.458114 -23.893062 2.396018 51.837821 4.145016 12.948924 -13.141416 0.000000 0.000000 0.000000 -19.205815 -15.398135 65.638903 -3.385364 1.371585 -36.139185 12.498313 35.366345 41.581550 7.648134 6.692547 -46.752452 0.000000 0.000000 0.000000 -17.717187 -12.859230 -13.544233 -55.723177 -4.747978 -3.597437 95.118267 -67.456624 -87.363841 0.000000 0.000000 0.000000 22.170101 -8.803617 8.880491 52.907892 31.853230 6.004419 -100.205883 37.720597 -10.137570 0.000000 0.000000 0.000000 
-0.717007 0.844132 -0.220865 6.525791 67.930032 23.117429 36.827805 -12.641672 -62.793949 -61.066130 22.946074 64.982175 20.764915 35.068610 19.621380 0.000000 0.000000 0.000000 19.499415 -5.213566 -54.874806 -24.388874 2.425511 52.350133 4.412449 13.754314 -13.429855 0.000000 0.000000 0.000000 -19.680965 -15.347486 65.350888 -3.274581 1.419922 -35.284460 12.275503 35.166170 40.865856 7.647474 6.683589 -46.455546 0.000000 0.000000 0.000000 -16.006887 -12.482214 -12.414406 -56.666229 -6.033264 -3.923962 90.195863 -65.742331 -81.344679 0.000000 0.000000 0.000000 22.685511 -8.235199 9.745205 54.398593 32.251381 6.492396 -101.494196 38.357355 -11.049824 0.000000 0.000000 0.000000 
-0.725579 0.837355 -0.221712 5.153311 69.428157 22.148714 37.205620 -12.420498 -60.271033 -60.801066 21.964201 66.397029 20.855649 35.685966 18.231975 0.000000 0.000000 0.000000 20.567551 -5.769624 -56.832598 -25.533868 3.058961 53.887020 4.336152 14.024203 -13.909988 0.000000 0.000000 0.000000 -19.441839 -15.670389 64.764885 -3.234669 1.369054 -35.337760 12.196155 34.682775 41.017514 7.435935 6.819499 -45.163621 0.000000 0.000000 0.000000 -14.810062 -10.732328 -12.410722 -56.165919 -7.232390 -3.836346 83.809788 -64.214161 -73.740442 0.000000 0.000000 0.000000 22.381413 -8.915193 9.187807 55.988223 30.399569 6.225751 -100.397279 41.117265 -13.076944 0.000000 0.000000 0.000000 
-0.734602 0.826302 -0.223652 4.066341 70.618233 21.032105 37.383494 -12.097387 -57.319644 -61.817829 21.936401 67.772160 21.498798 36.361622 18.239718 0.000000 0.000000 0.000000 21.955617 -6.167665 -58.996392 -27.239105 4.125724 55.807849 5.466080 17.401303 -13.535997 0.000000 0.000000 0.000000 -19.533200 -15.950889 64.708858 -3.370657 1.411115 -35.209248 11.969083 34.432617 40.785007 8.161000 6.716044 -44.184671 0.000000 0.000000 0.000000 -13.747507 -9.915856 -11.843143 -54.408106 -8.366508 -3.391950 79.627178 -60.607534 -66.699666 0.000000 0.000000 0.000000 24.186509 -9.838955 9.566569 55.136040 29.555971 4.652857 -100.915426 42.625179 -14.879642 0.000000 0.000000 0.000000 
-0.744590 0.807797 -0.226358 -0.096985 72.178726 17.172812 37.638515 -11.710109 -53.706994 -62.258174 21.543367 69.796451 21.508585 36.080919 18.533839 0.000000 0.000000 0.000000 24.489782 -6.245338 -61.742881 -29.985469 6.050126 58.811180 5.682766 19.402675 -14.297578 0.000000 0.000000 0.000000 -19.081713 -16.508908 64.411516 -3.095527 1.416402 -34.923701 11.097860 33.973318 40.171294 8.417957 6.782465 -42.810695 0.000000 0.000000 0.000000 -12.476140 -8.841443 -11.140074 -52.222584 -9.169819 -3.139593 78.487786 -57.502810 -62.987636 0.000000 0.000000 0.000000 24.965047 -9.667340 10.149939 53.125769 27.840899 2.685258 -98.394881 43.589947 -15.764708 0.000000 0.000000 0.000000 
-0.755838 0.784108 -0.230451 -5.283578 72.972714 12.048199 38.825514 -11.199573 -49.740278 -65.803431 21.763532 67.651334 23.223863 36.028375 23.980628 0.000000 0.000000 0.000000 28.264804 -5.697550 -65.138813 -33.698892 9.375507 61.183982 5.954336 21.808644 -14.819107 0.000000 0.000000 0.000000 -18.961121 -16.403141 63.425395 -2.752241 1.429326 -33.943781 10.571341 33.068332 40.309448 8.969196 6.655701 -42.485431 0.000000 0.000000 0.000000 -11.539802 -6.064177 -11.518076 -51.167153 -10.209062 -2.917484 78.515676 -55.070642 -60.803727 0.000000 0.000000 0.000000 24.689780 -9.692785 9.884894 52.139673 26.330624 1.752931 -96.358496 44.087525 -16.117164 0.000000 0.000000 0.000000 
-0.769597 0.756140 -0.236614 -10.515201 73.912208 7.061524 38.210316 -11.049213 -47.028613 -67.822302 20.134615 65.293140 25.025640 36.863706 27.703429 0.000000 0.000000 0.000000 31.705812 -5.291818 -68.799430 -37.560998 13.176197 63.105062 6.148845 24.510343 -15.700043 0.000000 0.000000 0.000000 -20.334244 -16.531245 64.544170 -2.748666 1.311075 -34.877435 11.234575 32.770323 40.424101 8.645452 6.787358 -40.638168 0.000000 0.000000 0.000000 -8.345311 -4.092511 -9.453246 -52.680918 -11.580690 -4.028233 84.551341 -52.779013 -64.386547 0.000000 0.000000 0.000000 23.118200 -8.739909 9.381999 52.679018 23.452032 1.033633 -94.005400 44.480342 -15.962388 0.000000 0.000000 0.000000 
-0.786756 0.726485 -0.245669 -13.993419 75.240943 4.543009 39.149885 -11.402186 -46.820101 -71.752998 18.603606 59.564850 29.876740 40.883977 31.433403 0.000000 0.000000 0.000000 35.532926 -4.961542 -73.551065 -44.652315 19.399784 63.188128 6.855096 30.666187 -17.580136 0.000000 0.000000 0.000000 -21.911066 -16.506573 65.251038 -2.860343 1.529781 -32.849726 9.566064 32.362857 37.205101 9.674019 6.174383 -39.946697 0.000000 0.000000 0.000000 -6.844912 -3.727481 -8.070248 -52.010613 -13.523370 -3.364864 86.782125 -47.937769 -62.351716 0.000000 0.000000 0.000000 22.428820 -8.356548 9.062799 53.766786 22.470754 1.232624 -93.766285 45.119825 -16.881690 0.000000 0.000000 0.000000 
-0.807746 0.690537 -0.257393 -19.938278 76.361113 -1.637411 40.477452 -11.844294 -48.980989 -73.679816 19.270740 58.081484 35.234916 46.736387 30.946126 0.000000 0.000000 0.000000 39.132489 -4.127111 -78.544389 -50.283672 25.647845 63.619354 7.124728 35.250662 -18.392874 0.000000 0.000000 0.000000 -24.674559 -16.607573 67.831715 -1.754698 1.226571 -34.287455 11.061825 34.527134 38.910573 9.550541 6.297913 -40.227113 0.000000 0.000000 0.000000 -4.747034 -3.766804 -6.659989 -52.501896 -15.356960 -3.599685 94.342953 -43.554322 -65.370703 0.000000 0.000000 0.000000 19.273805 -8.782198 6.887946 56.205758 19.411992 1.841404 -94.456067 45.009757 -16.158983 0.000000 0.000000 0.000000 
-0.829758 0.648748 -0.269059 -23.824135 77.895527 -5.060823 45.041887 -12.583281 -52.790822 -77.962097 20.884419 53.698683 45.270492 56.420631 32.001296 0.000000 0.000000 0.000000 43.783319 -2.521762 -84.673291 -59.508896 34.554818 61.327193 6.633321 39.767081 -19.774797 0.000000 0.000000 0.000000 -27.758785 -16.377037 69.901875 -0.800919 1.085648 -34.486558 11.138543 35.619320 38.743008 9.831207 6.157944 -39.812808 0.000000 0.000000 0.000000 -3.390686 -3.220969 -5.890832 -53.278862 -17.288158 -3.286089 103.361639 -40.731250 -70.900951 0.000000 0.000000 0.000000 16.918466 -7.539227 6.411719 58.051562 17.270238 2.149695 -97.557408 43.956629 -16.028423 0.000000 0.000000 0.000000 
